<?xml version="1.0" encoding="utf-8"?>
<!-- Generator: Adobe Illustrator 27.5.0, SVG Export Plug-In . SVG Version: 6.00 Build 0)  -->
<svg version="1.1" xmlns="http://www.w3.org/2000/svg" xmlns:xlink="http://www.w3.org/1999/xlink" x="0px" y="0px"
	 viewBox="0 0 2200 1466" style="enable-background:new 0 0 2200 1466;" xml:space="preserve">
<g id="Background">
	<rect y="0" style="fill:#FFFFFF;" width="2200" height="1466"/>
</g>
<g id="Objects">
	<g>
		<circle style="fill:#EBF1F7;" cx="616.286" cy="732.997" r="421.8"/>
		<g>
			<path style="fill:#303D89;" d="M880.382,1060.4v0.01c-10,8.13-20.37,15.81-31.1,23.01c-66.88,44.92-147.35,71.19-233.94,71.38
				h-0.92c-86.94,0-167.74-26.3-234.86-71.38c-10.73-7.2-21.1-14.88-31.1-23.01v-0.01c7.28-29.42,17.47-55.02,31.26-68.81
				c40.13-40.14,87.09-55.75,142.58-63.96h184.24c55.47,8.21,102.45,23.82,142.58,63.96c6.6,6.6,12.38,15.91,17.4,27.05
				C872.002,1030.77,876.592,1045.06,880.382,1060.4z"/>
		</g>
		<g>
			<path style="fill:#EFA18F;" d="M706.546,927.63c0,0-26.09,33.94-92.12,63.18c-66.03-29.24-92.12-63.18-92.12-63.18
				c18.34-11.69,32.59-29.28,40.25-49.23l103.72-0.05C673.936,898.32,688.196,915.93,706.546,927.63z"/>
		</g>
		<g>
			<path style="fill:#E59689;" d="M673.966,894.1c-36.707,14.526-79.903,11.203-115.36-6.76c1.46-2.92,2.78-5.9,3.95-8.94
				l103.72-0.05C668.366,883.8,670.946,889.08,673.966,894.1z"/>
		</g>
		<g>
			<path style="fill:#4F3535;" d="M445.136,654.04c-2.94-14.06-5.02-28.29-5.79-42.7c-2.34-43.83,8.99-90.35,39.94-121.48
				c38.59-38.84,98.22-46.19,152.95-46.83c19.64-0.23,40.09,0.31,57.6,9.21c17.3,8.81,30.74,28.17,26.73,47.09
				c17.57-3.88,36.59,5.48,47.84,19.8c11.88,15.16,16.54,34.75,18.78,53.88c3.12,26.57,2.13,53.58-2.78,79.86l-12.228,16.883
				H459.821L445.136,654.04z"/>
		</g>
		<g>
			<path style="fill:#F7AD97;" d="M799.086,700.42c-1.4,15.99-2.88,32.34-9.53,46.95c-4.13,9.05-10.99,17.78-20.67,20.11
				c-6.32,1.51-13.59-1.04-17.7-5.75c-12.55,44.06-41.35,92.22-84.91,116.62c0,0-19.79,11-51.85,11s-51.87-10.95-51.87-10.95
				c-43.58-24.36-72.41-72.51-84.98-116.56c-4.12,4.65-11.35,7.14-17.61,5.64c-9.68-2.33-16.54-11.06-20.67-20.11
				c-6.65-14.61-8.13-30.96-9.53-46.95c-0.82-9.37-1.62-19,0.92-28.06c2.16-7.72,7.3-15.06,14.45-18.32c0,0,12.91-6.85,30.04,0
				c0,0,0.59-40.26,22.3-63.74c0,0,119.173,40.295,222.175-1.055c0,0,24.455,20.135,30.365,64.795c0,0,11.31-7.42,30.39-1.17
				c8.88,2.27,15.27,10.62,17.76,19.49C800.706,681.42,799.906,691.05,799.086,700.42z"/>
		</g>
		<path style="fill:#CCD8E2;" d="M1038.082,733c0,232.95-188.84,421.8-421.8,421.8h-0.94c86.59-0.19,167.06-26.46,233.94-71.38
			c10.73-7.2,21.1-14.88,31.1-23.01v-0.01c-3.79-15.34-8.38-29.63-13.86-41.76c82.66-77,134.35-186.8,134.35-308.68
			c0-143.74-71.89-270.68-181.68-346.83C949.662,434.85,1038.082,573.59,1038.082,733z"/>
		<g>
			<path style="fill:#24326B;" d="M880.382,1060.4v0.01c-10,8.13-20.37,15.81-31.1,23.01c-66.88,44.92-147.35,71.19-233.94,71.38
				c-88.86-0.19-171.27-27.87-239.18-74.97c60.2,33.1,129.36,51.93,202.91,51.93c111.08,0,212.11-42.93,287.45-113.12
				C872.002,1030.77,876.592,1045.06,880.382,1060.4z"/>
		</g>
		<path d="M614.426,1165.797c-58.423,0-115.104-11.444-168.468-34.017c-51.539-21.799-97.823-53.004-137.567-92.748
			s-70.949-86.028-92.748-137.566c-22.571-53.365-34.016-110.046-34.016-168.469s11.445-115.104,34.016-168.469
			c21.799-51.539,53.004-97.823,92.748-137.567s86.028-70.949,137.567-92.748c53.365-22.571,110.045-34.016,168.468-34.016
			s115.104,11.445,168.469,34.016c51.539,21.799,97.823,53.004,137.567,92.748s70.949,86.028,92.748,137.567
			c22.572,53.365,34.017,110.046,34.017,168.469s-11.444,115.104-34.017,168.469c-21.799,51.538-53.004,97.822-92.748,137.566
			s-86.028,70.949-137.567,92.749C729.53,1154.353,672.849,1165.797,614.426,1165.797z M614.426,322.197
			c-55.462,0-109.26,10.86-159.898,32.278c-48.916,20.69-92.85,50.312-130.581,88.042c-37.731,37.73-67.353,81.664-88.042,130.581
			c-21.418,50.639-32.278,104.437-32.278,159.899c0,55.462,10.86,109.26,32.278,159.898c20.69,48.916,50.312,92.85,88.042,130.581
			c37.73,37.73,81.665,67.353,130.581,88.042c50.639,21.418,104.437,32.278,159.898,32.278c55.463,0,109.261-10.86,159.898-32.278
			c48.917-20.689,92.851-50.312,130.582-88.042c37.73-37.731,67.353-81.665,88.042-130.581
			c21.418-50.639,32.278-104.437,32.278-159.898c0-55.462-10.86-109.26-32.278-159.898c-20.689-48.917-50.312-92.851-88.042-130.581
			c-37.731-37.731-81.665-67.353-130.582-88.042C723.687,333.057,669.889,322.197,614.426,322.197z"/>
	</g>
	<g>
		<circle style="fill:#EBF1F7;" cx="1585.574" cy="732.997" r="421.8"/>
		<g>
			<path style="fill:#8652D8;" d="M1820.442,1080.32c-67.13,45.08-147.93,71.38-234.87,71.38c-79.53,0-153.93-22.01-217.41-60.27
				c-5.91-3.57-11.73-7.27-17.45-11.11c7.93-40.81,20.39-79.24,37.99-96.83c40.13-40.13,67.65-45.82,104.75-58.96
				c0,0,61.71,32.17,93.98,91.98c0,0,31.55-51.43,90.27-91.98c37.09,13.14,64.62,18.83,104.75,58.96
				c11.61,11.61,20.98,32.29,28.3,56.74C1814.522,1052.83,1817.742,1066.44,1820.442,1080.32z"/>
		</g>
		<g>
			<path style="fill:#4F3535;" d="M1532.372,878.56c-43.25,8.79-98.86,3.83-124.58-5.31c-5.74-2.05-11.54-4.47-15.92-8.71
				c-4.39-4.25-7.1-10.69-5.41-16.55c2.74-9.5,14.42-12.55,22-18.92c7.37-6.2,10.93-16.05,11.41-25.68
				c0.49-9.64-1.76-19.18-4.26-28.49c-7.73-28.74-18.03-56.74-25.92-85.45c-7.89-28.71-13.37-74.96-11.13-104.64
				c2.27-29.68,12.83-59.46,33.54-80.83c19.01-19.63,57.16-35.14,95.84-21.52c18.33-24.57,50.25-47.51,99.89-51.33
				c79.23-6.1,126,29.45,155.02,75.81c27.91,44.58,22.6,116.99,13.94,168.17c-8.67,51.18-19.57,105.01-0.68,153.65
				c3.68,9.48,8.5,19.68,5.11,29.25c-3.31,9.31-13.36,14.74-22.89,18.6c-36,14.54-76.6,18.18-115.01,11.28L1532.372,878.56z"/>
		</g>
		<g>
			<path style="fill:#EFA18F;" d="M1677.702,924.53c-58.72,40.55-90.27,91.98-90.27,91.98c-32.27-59.81-93.98-91.98-93.98-91.98
				c17.33-11.05,31.01-27.37,38.92-45.97c8.25-16.67,9.8-34.4,9.8-34.4l83.74,1.33c0,0-1.33,11.08,17.41,42.4
				C1651.472,902.58,1663.332,915.37,1677.702,924.53z"/>
		</g>
		<g>
			<path style="fill:#E59689;" d="M1643.322,887.89c-23.56,3.78-50.249,3.136-73.829-0.604c-12.44-1.97-24.663-5.907-35.201-12.906
				c6.58-15.32,7.88-30.22,7.88-30.22l83.74,1.33C1625.912,845.49,1626.272,858.65,1643.322,887.89z"/>
		</g>
		<g>
			<path style="fill:#F7AD97;" d="M1763.457,695.55c-1.35,15.4-2.77,31.15-9.18,45.23c-3.98,8.71-10.58,17.12-19.91,19.37
				c-4.59,1.09-9.69-0.03-13.62-2.59c-14.8,43.11-62.588,120.79-133.05,120.79c-76.037,0-121.83-81.2-133.94-123.64
				c-3.97,4.48-10.94,6.88-16.97,5.44c-9.32-2.25-15.93-10.66-19.91-19.37c-6.4-14.08-7.83-29.83-9.18-45.23
				c-0.79-9.03-1.56-18.3,0.89-27.03c2.08-7.44,7.03-14.51,13.92-17.65c0,0,12.43-6.6,28.94,0c0,0-2.21-52.299,35.403-61.625
				c82.701-20.505,100.867,39.045,200.087-0.785c0,0,23.56,19.39,29.25,62.41c0,0,10.9-7.14,29.28-1.12
				c8.55,2.18,14.71,10.23,17.11,18.77C1765.016,677.25,1764.247,686.52,1763.457,695.55z"/>
		</g>
		<path style="fill:#CCD8E2;" d="M2007.372,733c0,232.95-188.84,421.8-421.8,421.8c-89.22,0-171.97-27.7-240.12-74.97
			c7.43,4.09,15.01,7.96,22.71,11.6c63.48,38.26,137.88,60.27,217.41,60.27c86.94,0,167.74-26.3,234.87-71.38
			c-2.7-13.88-5.92-27.49-9.69-40.09c97.14-77.27,159.41-196.5,159.41-330.27c0-143.74-71.89-270.68-181.68-346.83
			C1918.952,434.85,2007.372,573.59,2007.372,733z"/>
		<g>
			<path style="fill:#6D42C1;" d="M1820.442,1080.32c-67.13,45.08-147.93,71.38-234.87,71.38c-79.53,0-153.93-22.01-217.41-60.27
				c54.64,25.86,115.73,40.33,180.2,40.33c99.18,0,190.37-34.23,262.39-91.53C1814.522,1052.83,1817.742,1066.44,1820.442,1080.32z"
				/>
		</g>
		<path d="M1585.574,1165.797c-58.423,0-115.104-11.444-168.469-34.017c-51.539-21.799-97.823-53.004-137.567-92.748
			s-70.948-86.028-92.748-137.566c-22.571-53.365-34.016-110.046-34.016-168.469s11.444-115.104,34.016-168.469
			c21.8-51.539,53.004-97.823,92.748-137.567s86.028-70.949,137.567-92.748c53.365-22.571,110.046-34.016,168.469-34.016
			s115.104,11.445,168.469,34.016c51.539,21.799,97.823,53.004,137.567,92.748s70.948,86.028,92.748,137.567
			c22.571,53.365,34.016,110.046,34.016,168.469s-11.444,115.104-34.016,168.469c-21.8,51.538-53.004,97.822-92.748,137.566
			s-86.028,70.949-137.567,92.748C1700.678,1154.353,1643.997,1165.797,1585.574,1165.797z M1585.574,322.197
			c-55.463,0-109.261,10.86-159.898,32.278c-48.917,20.69-92.851,50.312-130.581,88.042c-37.73,37.73-67.353,81.664-88.042,130.581
			c-21.418,50.639-32.278,104.436-32.278,159.899c0,55.462,10.86,109.26,32.278,159.898c20.689,48.916,50.312,92.85,88.042,130.581
			c37.73,37.73,81.664,67.353,130.581,88.042c50.638,21.418,104.436,32.278,159.898,32.278s109.261-10.86,159.898-32.278
			c48.917-20.689,92.851-50.312,130.581-88.042c37.73-37.731,67.353-81.665,88.042-130.581
			c21.418-50.639,32.278-104.437,32.278-159.898c0-55.463-10.86-109.26-32.278-159.899c-20.689-48.917-50.312-92.85-88.042-130.581
			c-37.73-37.731-81.664-67.353-130.581-88.042C1694.835,333.057,1641.037,322.197,1585.574,322.197z"/>
	</g>
</g>
</svg>
